{"title":"The Hobbit An Unexpected Journey 2012 1080p BluRay QEBSx AAC51 M","uid":8906441,"size":4314040539,"categoryP":"video","categoryS":"hd___movies","magnet":"?xt=urn:btih:cb44a0e0f6af947310a6e8e00de2b2b920a337d8&amp;dn=The+Hobbit+An+Unexpected+Journey+2012+1080p+BluRay+QEBSx+AAC51+M&amp;tr=udp%3A%2F%2Ftracker.openbittorrent.com%3A80&amp;tr=udp%3A%2F%2Fopen.demonii.com%3A1337&amp;tr=udp%3A%2F%2Ftracker.coppersurfer.tk%3A6969&amp;tr=udp%3A%2F%2Fexodus.desync.com%3A6969","seeders":6,"leechers":2,"uploader":"SaM","files":9,"time":1378917928,"description":"The_Hobbit_An_Unexpected_Journey_2012_1080p_BluRay_QEBSx_AAC51_MP4-FASM.mp4\n\nFirst release with the new improved QEBSx_2 engine.\n\nSUBTITLES:\nENGLISH, POLISH others from other BluRay releases on subscene.com\n\nGeneral:\nComplete name                  : The_Hobbit_An_Unexpected_Journey_2012_1080p_BluRay_QEBSx_AAC51_MP4-FASM.mp4\nFormat                         : MPEG-4\nFormat profile                 : Base Media\nCodec ID                       : isom\nFile size                      : 3.99 GiB\nDuration                       : 2h 49mn\nOverall bit rate mode          : Variable\nOverall bit rate               : 3 363 Kbps\nEncoded date                   : UTC 2013-08-11 07:37:45\nTagged date                    : UTC 2013-08-11 07:37:45\n\nVideo\nID                             : 1\nFormat                         : AVC\nFormat/Info                    : Advanced Video Codec\nFormat profile                 : &lt;a class=&quot;__cf_email__&quot; href=&quot;/cdn-cgi/l/email-protection&quot; data-cfemail=&quot;e7af8e808fa7abd3c9d7&quot;&gt;[email&amp;#160;protected]&lt;/a&gt;&lt;script cf-hash='f9e31' type=&quot;text/javascript&quot;&gt;\n/* &lt;![CDATA[ */!function(){try{var t=&quot;currentScript&quot;in document?document.currentScript:function(){for(var t=document.getElementsByTagName(&quot;script&quot;),e=t.length;e--;)if(t[e].getAttribute(&quot;cf-hash&quot;))return t[e]}();if(t&amp;&amp;t.previousSibling){var e,r,n,i,c=t.previousSibling,a=c.getAttribute(&quot;data-cfemail&quot;);if(a){for(e=&quot;&quot;,r=parseInt(a.substr(0,2),16),n=2;a.length-n;n+=2)i=parseInt(a.substr(n,2),16)^r,e+=String.fromCharCode(i);e=document.createTextNode(e),c.parentNode.replaceChild(e,c)}}}catch(u){}}();/* ]]&gt; */&lt;/script&gt;\nFormat settings, CABAC         : Yes\nFormat settings, ReFrames      : 5 frames\nCodec ID                       : avc1\nCodec ID/Info                  : Advanced Video Coding\nDuration                       : 2h 49mn\nBit rate                       : 2 952 Kbps\nMaximum bit rate               : 7 756 Kbps\nWidth                          : 1 920 pixels\nHeight                         : 800 pixels\nDisplay aspect ratio           : 2.40:1\nFrame rate mode                : Constant\nFrame rate                     : 23.976 fps\nColor space                    : YUV\nChroma subsampling             : 4:2:0\nBit depth                      : 8 bits\nScan type                      : Progressive\nBits/(Pixel*Frame)             : 0.080\nStream size                    : 3.50 GiB (88%)\nWriting library                : FASM Quality Enhancer Bitrate Squeezer X.2 (c)2013 Fachman\nEncoded date                   : UTC 2013-08-11 07:37:45\nTagged date                    : UTC 2013-08-11 07:40:51\nColor primaries                : BT.709\nTransfer characteristics       : BT.709\nMatrix coefficients            : BT.709\n\nAudio\nID                             : 2\nFormat                         : AAC\nFormat/Info                    : Advanced Audio Codec\nFormat profile                 : LC\nCodec ID                       : 40\nDuration                       : 2h 49mn\nBit rate mode                  : Variable\nBit rate                       : 408 Kbps\nMaximum bit rate               : 514 Kbps\nChannel(s)                     : 6 channels\nChannel positions              : Front: L C R, Side: L R, LFE\nSampling rate                  : 48.0 KHz\nCompression mode               : Lossy\nStream size                    : 495 MiB (12%)\nLanguage                       : English\nEncoded date                   : UTC 2013-08-11 07:40:35\nTagged date                    : UTC 2013-08-11 07:40:51\n\nMenu\n00:00:00.000                   : Chapter01\n00:08:51.531                   : Chapter02\n00:12:58.903                   : Chapter03\n00:16:34.619                   : Chapter04\n00:20:50.666                   : Chapter05\n00:25:09.007                   : Chapter06\n00:33:14.409                   : Chapter07\n00:38:26.804                   : Chapter08\n00:43:40.368                   : Chapter09\n00:50:12.301                   : Chapter10\n00:55:16.939                   : Chapter11\n00:57:04.838                   : Chapter12\n01:07:51.943                   : Chapter13\n01:12:11.369                   : Chapter14\n01:16:03.559                   : Chapter15\n01:22:06.463                   : Chapter16\n01:28:49.991                   : Chapter17\n01:32:03.518                   : Chapter18\n01:33:42.534                   : Chapter19\n01:40:29.607                   : Chapter20\n01:43:06.847                   : Chapter21\n01:49:12.963                   : Chapter22\n01:54:04.588                   : Chapter23\n01:56:58.094                   : Chapter24\n02:10:27.945                   : Chapter25\n02:12:26.021                   : Chapter26\n02:13:37.718                   : Chapter27\n02:17:59.438                   : Chapter28\n02:20:09.359                   : Chapter29\n02:22:59.112                   : Chapter30\n02:33:58.563                   : Chapter31\n02:39:27.558                   : Chapter32\n &lt;a href=&quot;\nhttp://www.imagebam.com/image/d8f39c270228023&quot; rel=&quot;nofollow&quot; target=&quot;_NEW&quot;&gt;\nhttp://www.imagebam.com/image/d8f39c270228023&lt;/a&gt;\n &lt;a href=&quot;\nhttp://www.imagebam.com/image/0ae207270229005&quot; rel=&quot;nofollow&quot; target=&quot;_NEW&quot;&gt;\nhttp://www.imagebam.com/image/0ae207270229005&lt;/a&gt;\n &lt;a href=&quot;\nhttp://www.imagebam.com/image/950e52270229436&quot; rel=&quot;nofollow&quot; target=&quot;_NEW&quot;&gt;\nhttp://www.imagebam.com/image/950e52270229436&lt;/a&gt;","torrent":{"xt":"urn:btih:cb44a0e0f6af947310a6e8e00de2b2b920a337d8","amp;dn":"The+Hobbit+An+Unexpected+Journey+2012+1080p+BluRay+QEBSx+AAC51+M","amp;tr":["udp%3A%2F%2Ftracker.openbittorrent.com%3A80","udp%3A%2F%2Fopen.demonii.com%3A1337","udp%3A%2F%2Ftracker.coppersurfer.tk%3A6969","udp%3A%2F%2Fexodus.desync.com%3A6969"],"infoHash":"cb44a0e0f6af947310a6e8e00de2b2b920a337d8","infoHashBuffer":{"type":"Buffer","data":[203,68,160,224,246,175,148,115,16,166,232,224,13,226,178,185,32,163,55,216]},"announce":[],"urlList":[]}}